# xmcd
#
# Track frame offsets:
#       150
#       14330
#       25610
#       38170
#       48425
#       58525
#       74985
#       85632
#       100142
#       111217
#       123987
#       137052
#       148010
#       160990
#       173135
#
# Disc length: 2466 seconds
#
# Revision: 0
# Processed by: cddbd v1.5.1PL0 Copyright (c) Steve Scherf et al.
# Submitted via: CD-DA_X-Tractor v0.24
#
DISCID=cc09a00f
DTITLE=Jesse Colin Young - Jesse Colin Young and The Youngbloods
DYEAR=1997
DGENRE=Country
TTITLE0=Rider
TTITLE1=Doc Geiger
TTITLE2=Lullabye
TTITLE3=Brother Can You Spare A Dime
TTITLE4=Trouble In Mind
TTITLE5=Little Suzie
TTITLE6=Nobody's Dirty Business
TTITLE7=Green Hill Mountain Home
TTITLE8=Summer Rain
TTITLE9=Walkin' Off The Blues
TTITLE10=Cotton Eyed Joe
TTITLE11=Another Strange Town
TTITLE12=Sometimes
TTITLE13=Hey Babe
TTITLE14=No More Pain
EXTD=
EXTT0=
EXTT1=
EXTT2=
EXTT3=
EXTT4=
EXTT5=
EXTT6=
EXTT7=
EXTT8=
EXTT9=
EXTT10=
EXTT11=
EXTT12=
EXTT13=
EXTT14=
PLAYORDER=
